<?xml version="1.0" standalone="no"?>
<!DOCTYPE svg PUBLIC "-//W3C//DTD SVG 20010904//EN"
 "http://www.w3.org/TR/2001/REC-SVG-20010904/DTD/svg10.dtd">
<svg version="1.0" xmlns="http://www.w3.org/2000/svg"
 width="320.000000pt" height="320.000000pt" viewBox="0 0 320.000000 320.000000"
 preserveAspectRatio="xMidYMid meet">

<g transform="translate(0.000000,320.000000) scale(0.100000,-0.100000)"
fill="#000000" stroke="none">
<path d="M1643 2661 c-29 -10 -77 -34 -107 -54 -133 -88 -638 -566 -679 -642
-31 -59 -30 -155 3 -215 61 -108 204 -160 336 -122 23 7 124 69 225 139 304
210 317 215 398 173 21 -10 164 -113 317 -227 154 -115 346 -257 427 -317 81
-59 154 -120 161 -135 39 -77 23 -138 -43 -164 -55 -22 -86 -21 -157 4 -32 12
-78 23 -101 26 -50 6 -61 -8 -88 -109 -10 -39 -28 -79 -42 -94 -32 -34 -71
-30 -184 22 -144 65 -194 49 -209 -67 -10 -82 -22 -111 -56 -138 -36 -28 -49
-27 -155 14 -101 39 -158 44 -181 18 -8 -10 -30 -46 -48 -80 -78 -149 -170
-119 -452 148 -264 250 -315 286 -432 308 -74 14 -532 14 -557 0 -22 -12 -27
-90 -6 -107 7 -6 116 -11 277 -14 260 -3 266 -4 320 -29 68 -32 136 -88 323
-267 193 -184 287 -246 395 -259 96 -11 182 37 239 134 19 33 30 42 42 37 62
-26 158 -54 185 -54 41 0 92 17 130 43 38 27 85 103 93 150 3 20 10 40 15 43
5 3 36 -6 69 -21 160 -71 292 -23 345 126 14 37 22 48 34 44 76 -30 187 -29
258 1 158 66 184 283 49 411 -23 22 -85 71 -137 108 -52 38 -210 154 -350 259
-140 104 -282 210 -315 234 -138 103 -239 126 -342 78 -29 -14 -143 -87 -254
-162 -111 -76 -219 -143 -239 -150 -65 -23 -149 10 -179 71 -32 66 28 137 409
480 222 199 275 231 385 229 84 -1 136 -22 281 -114 545 -346 530 -340 884
-340 140 0 239 4 251 10 14 8 19 21 19 55 0 34 -5 47 -19 55 -12 6 -108 10
-243 10 -158 0 -238 4 -275 14 -80 21 -194 83 -416 225 -111 70 -227 142 -257
159 -126 70 -245 89 -347 53z"/>
</g>
</svg>
