<svg xmlns="http://www.w3.org/2000/svg" xmlns:xlink="http://www.w3.org/1999/xlink" version="1.1" width="1000" height="1000" viewBox="0 0 1000 1000" xml:space="preserve">
<desc>Created with Fabric.js 3.5.0</desc>
<defs>
</defs>
<rect x="0" y="0" width="100%" height="100%" fill="#1a569d"/>
<g transform="matrix(0.3125 0 0 -0.3125 500.0604 500.0417)" id="322524">
<path style="stroke: none; stroke-width: 1; stroke-dasharray: none; stroke-linecap: butt; stroke-dashoffset: 0; stroke-linejoin: miter; stroke-miterlimit: 4; is-custom-font: none; font-file-url: none; fill: rgb(255,255,255); fill-rule: nonzero; opacity: 1;" vector-effect="non-scaling-stroke" transform=" translate(-1599.8067, -1575.1346)" d="M 1643 2661 c -29 -10 -77 -34 -107 -54 c -133 -88 -638 -566 -679 -642 c -31 -59 -30 -155 3 -215 c 61 -108 204 -160 336 -122 c 23 7 124 69 225 139 c 304 210 317 215 398 173 c 21 -10 164 -113 317 -227 c 154 -115 346 -257 427 -317 c 81 -59 154 -120 161 -135 c 39 -77 23 -138 -43 -164 c -55 -22 -86 -21 -157 4 c -32 12 -78 23 -101 26 c -50 6 -61 -8 -88 -109 c -10 -39 -28 -79 -42 -94 c -32 -34 -71 -30 -184 22 c -144 65 -194 49 -209 -67 c -10 -82 -22 -111 -56 -138 c -36 -28 -49 -27 -155 14 c -101 39 -158 44 -181 18 c -8 -10 -30 -46 -48 -80 c -78 -149 -170 -119 -452 148 c -264 250 -315 286 -432 308 c -74 14 -532 14 -557 0 c -22 -12 -27 -90 -6 -107 c 7 -6 116 -11 277 -14 c 260 -3 266 -4 320 -29 c 68 -32 136 -88 323 -267 c 193 -184 287 -246 395 -259 c 96 -11 182 37 239 134 c 19 33 30 42 42 37 c 62 -26 158 -54 185 -54 c 41 0 92 17 130 43 c 38 27 85 103 93 150 c 3 20 10 40 15 43 c 5 3 36 -6 69 -21 c 160 -71 292 -23 345 126 c 14 37 22 48 34 44 c 76 -30 187 -29 258 1 c 158 66 184 283 49 411 c -23 22 -85 71 -137 108 c -52 38 -210 154 -350 259 c -140 104 -282 210 -315 234 c -138 103 -239 126 -342 78 c -29 -14 -143 -87 -254 -162 c -111 -76 -219 -143 -239 -150 c -65 -23 -149 10 -179 71 c -32 66 28 137 409 480 c 222 199 275 231 385 229 c 84 -1 136 -22 281 -114 c 545 -346 530 -340 884 -340 c 140 0 239 4 251 10 c 14 8 19 21 19 55 c 0 34 -5 47 -19 55 c -12 6 -108 10 -243 10 c -158 0 -238 4 -275 14 c -80 21 -194 83 -416 225 c -111 70 -227 142 -257 159 c -126 70 -245 89 -347 53 z" stroke-linecap="round"/>
</g>
</svg>